<?xml version="1.0" encoding="utf-8"?><!-- Uploaded to: SVG Repo, www.svgrepo.com, Generator: SVG Repo Mixer Tools -->
<svg version="1.1" id="designs" xmlns="http://www.w3.org/2000/svg" xmlns:xlink="http://www.w3.org/1999/xlink" 
	 width="800px" height="800px" viewBox="0 0 32 32" xml:space="preserve">
<style type="text/css">
	.sketchy_een{fill:#111918;}
</style>
<path class="sketchy_een" d="M6.504,8.763c0.028,0.016,0.06,0.018,0.089,0.03C6.654,8.865,6.72,8.933,6.805,8.979
	c0.586,0.317,1.179,0.625,1.747,0.975c0.235,0.145,0.46,0.309,0.693,0.46c0.223,0.143,0.452,0.276,0.678,0.413
	c0.443,0.27,0.893,0.527,1.34,0.789c0.227,0.133,0.452,0.288,0.693,0.392c0.225,0.098,0.423,0.155,0.668,0.088
	c0.024-0.007,0.044-0.025,0.068-0.034c0.148,0.035,0.302,0.047,0.451,0.005c0.153-0.043,0.286-0.121,0.398-0.233
	c0.112-0.112,0.19-0.245,0.233-0.398c0.007-0.016,0.013-0.031,0.019-0.047c0.109-0.223,0.252-0.426,0.377-0.642
	c0.135-0.235,0.274-0.47,0.388-0.715c0.166-0.347,0.311-0.703,0.456-1.056c0.161-0.394,0.321-0.789,0.415-1.203
	c0.163-0.701,0.159-1.483-0.09-2.164c-0.155-0.433-0.384-0.815-0.658-1.181c-0.104-0.137-0.208-0.282-0.333-0.4
	c-0.092-0.088-0.194-0.163-0.294-0.241c-0.19-0.147-0.378-0.304-0.584-0.429c-0.114-0.069-0.237-0.125-0.358-0.182
	c-0.243-0.117-0.48-0.211-0.742-0.266c-0.233-0.051-0.467-0.082-0.702-0.082c-0.107,0-0.214,0.006-0.321,0.021
	c-0.251,0.033-0.478,0.074-0.717,0.147c-0.266,0.082-0.519,0.196-0.774,0.306C9.639,3.395,9.428,3.495,9.234,3.634
	C8.95,3.841,8.656,4.041,8.406,4.292c-0.173,0.175-0.322,0.369-0.47,0.565c-0.157,0.191-0.32,0.375-0.46,0.579
	C7.346,5.625,7.215,5.812,7.093,6.005C6.935,6.252,6.794,6.509,6.649,6.763C6.492,7.036,6.332,7.308,6.2,7.594
	c-0.1,0.217-0.153,0.421-0.088,0.658C6.171,8.467,6.314,8.651,6.504,8.763z M12.945,5.3c0.027,0.021,0.054,0.042,0.081,0.063
	c-0.029-0.022-0.058-0.044-0.087-0.067C12.941,5.297,12.943,5.299,12.945,5.3z M8.503,7.021c0.225-0.281,0.461-0.557,0.7-0.826
	c0.231-0.263,0.465-0.527,0.733-0.753c0.246-0.176,0.499-0.334,0.774-0.46c0.26-0.102,0.525-0.191,0.8-0.244
	c0.102-0.008,0.202-0.012,0.304-0.008c0.144,0.028,0.283,0.067,0.422,0.117c0.231,0.114,0.443,0.257,0.651,0.411
	c0.109,0.091,0.205,0.187,0.296,0.294c0.137,0.187,0.26,0.378,0.363,0.586c0.058,0.164,0.101,0.328,0.132,0.499
	c0.017,0.213,0.016,0.422-0.003,0.634c-0.096,0.491-0.271,0.968-0.453,1.432c-0.149,0.332-0.319,0.648-0.497,0.967
	c-0.112,0.202-0.237,0.401-0.351,0.601c-0.005,0.008-0.009,0.017-0.014,0.025c-0.127-0.07-0.255-0.139-0.382-0.207
	c-0.456-0.243-0.903-0.497-1.351-0.752c-0.45-0.255-0.879-0.539-1.306-0.83C8.907,8.225,8.477,7.968,8.047,7.712
	C8.184,7.474,8.336,7.244,8.503,7.021z M17.948,12.762c0.002,0.016,0.005,0.032,0.007,0.049c0.001,0.008,0.002,0.016,0.003,0.024
	C17.954,12.811,17.951,12.786,17.948,12.762z M17.972,12.956c-0.005-0.041-0.01-0.081-0.015-0.122
	c0.005,0.041,0.01,0.083,0.016,0.125C17.973,12.959,17.973,12.958,17.972,12.956z M20.101,16.919
	c0.276-0.135,0.556-0.255,0.834-0.388c0.265-0.126,0.531-0.254,0.8-0.374c0.359-0.143,0.714-0.29,1.068-0.441
	c-0.059,0.027-0.121,0.053-0.182,0.078c0.409-0.166,0.828-0.315,1.242-0.468c0.341-0.127,0.68-0.258,1.021-0.386
	c0.118,0.005,0.239-0.015,0.354-0.057c0.221-0.082,0.398-0.192,0.519-0.401c0.119-0.2,0.149-0.445,0.088-0.67
	c-0.078-0.284-0.318-0.513-0.598-0.601c-0.024-0.043-0.037-0.093-0.069-0.131c-0.135-0.208-0.236-0.437-0.348-0.66
	c-0.147-0.296-0.302-0.591-0.474-0.872c-0.192-0.315-0.372-0.623-0.615-0.903c-0.114-0.131-0.237-0.257-0.36-0.384
	c-0.237-0.243-0.474-0.49-0.791-0.627c-0.426-0.185-0.892-0.273-1.358-0.274c-0.471,0-0.942,0.09-1.376,0.261
	c-0.353,0.139-0.668,0.311-0.956,0.562c-0.26,0.225-0.472,0.484-0.64,0.785c-0.223,0.4-0.329,0.836-0.335,1.293
	c-0.003,0.186,0.009,0.368,0.029,0.551c0.073,0.518,0.197,1.02,0.31,1.531c0.125,0.562,0.304,1.114,0.523,1.643
	c0.026,0.065,0.06,0.118,0.091,0.175c-0.009,0.161,0.012,0.323,0.095,0.463c0.108,0.186,0.286,0.323,0.492,0.38
	C19.693,17.064,19.897,17.019,20.101,16.919z M19.675,11.872c0.038-0.076,0.079-0.15,0.123-0.223c0.09-0.104,0.187-0.2,0.29-0.29
	c0.108-0.064,0.216-0.122,0.328-0.175c0.166-0.062,0.331-0.111,0.505-0.143c0.226-0.021,0.45-0.031,0.677-0.018
	c0.108,0.02,0.215,0.045,0.319,0.079c0.018,0.01,0.037,0.021,0.055,0.033c0.247,0.214,0.48,0.447,0.688,0.698
	c0.238,0.329,0.43,0.694,0.621,1.05c0.148,0.273,0.294,0.549,0.437,0.825c-0.05,0.022-0.1,0.043-0.15,0.065
	c-0.297,0.119-0.599,0.225-0.896,0.345c-0.363,0.145-0.719,0.303-1.078,0.458c-0.447,0.18-0.899,0.349-1.349,0.522
	c-0.001-0.002-0.002-0.004-0.003-0.006c-0.145-0.363-0.295-0.721-0.384-1.103c-0.084-0.363-0.164-0.732-0.221-1.101
	c-0.029-0.252-0.047-0.504-0.034-0.757C19.622,12.043,19.646,11.958,19.675,11.872z M9.259,21.065c0-0.001,0.001-0.002,0.001-0.003
	c0.007-0.017,0.014-0.033,0.021-0.05C9.273,21.03,9.266,21.048,9.259,21.065z M9.251,21.083c-0.004,0.01-0.009,0.021-0.013,0.031
	c-0.01,0.024-0.02,0.049-0.031,0.073C9.222,21.152,9.236,21.118,9.251,21.083z M10.907,16.354c0.08-0.266,0.159-0.531,0.233-0.799
	c0.084-0.306,0.165-0.613,0.27-0.911c0.117-0.105,0.214-0.231,0.256-0.384c0.082-0.296-0.012-0.582-0.212-0.805
	c-0.106-0.119-0.255-0.196-0.392-0.278c-0.104-0.061-0.204-0.129-0.304-0.196c-0.217-0.143-0.433-0.282-0.65-0.421
	c-0.45-0.288-0.893-0.582-1.34-0.872c-0.423-0.276-0.854-0.533-1.259-0.834C7.207,10.63,6.902,10.411,6.591,10.2
	c-0.074-0.119-0.166-0.225-0.287-0.297C6.171,9.825,6.02,9.786,5.868,9.786c-0.03,0-0.06,0.009-0.089,0.012
	C5.764,9.797,5.749,9.792,5.734,9.792c-0.293,0-0.583,0.154-0.735,0.417c-0.092,0.156-0.111,0.332-0.094,0.503
	c-0.283,0.639-0.565,1.279-0.892,1.896c-0.394,0.74-0.834,1.453-1.197,2.209c-0.186,0.386-0.36,0.781-0.537,1.173
	c-0.178,0.394-0.353,0.793-0.505,1.199c-0.139,0.38-0.276,0.764-0.403,1.148c-0.118,0.36-0.225,0.744-0.278,1.12
	c-0.096,0.672-0.139,1.322-0.024,1.994c0.055,0.327,0.151,0.635,0.304,0.93c0.178,0.337,0.431,0.595,0.715,0.84
	c0.288,0.251,0.64,0.523,0.989,0.68c0.309,0.137,0.625,0.266,0.94,0.392c0.133,0.053,0.272,0.074,0.415,0.094
	c0.202,0.029,0.403,0.049,0.605,0.067c0.114,0.008,0.227,0.02,0.341,0.02c0.135,0,0.272-0.02,0.406-0.041
	c0.175-0.023,0.35-0.041,0.525-0.067c0.26-0.037,0.505-0.135,0.746-0.239c0.396-0.172,0.715-0.513,0.962-0.858
	c0.237-0.329,0.439-0.68,0.656-1.022c0.212-0.338,0.374-0.691,0.529-1.054c0.012-0.027,0.023-0.054,0.035-0.081
	c0.007-0.017,0.015-0.034,0.022-0.052c0.124-0.294,0.24-0.587,0.342-0.89c0.116-0.339,0.221-0.68,0.333-1.02
	c0.215-0.646,0.47-1.277,0.707-1.913C10.75,16.953,10.819,16.648,10.907,16.354z M9.567,15.093
	c-0.067,0.258-0.151,0.509-0.227,0.764c-0.094,0.317-0.168,0.638-0.26,0.952c-0.096,0.329-0.229,0.646-0.349,0.964
	c-0.127,0.339-0.245,0.68-0.372,1.018c-0.217,0.58-0.388,1.18-0.617,1.755c-0.135,0.306-0.279,0.605-0.468,0.885
	c-0.174,0.258-0.351,0.516-0.533,0.769c-0.104,0.122-0.213,0.235-0.335,0.341c-0.023,0.014-0.046,0.028-0.069,0.04
	c-0.159,0.052-0.323,0.084-0.488,0.11c-0.339,0.035-0.673,0.027-1.013-0.009c-0.121-0.017-0.243-0.032-0.357-0.067
	c-0.117-0.037-0.232-0.083-0.346-0.13c-0.177-0.079-0.348-0.161-0.515-0.267c-0.083-0.054-0.165-0.112-0.245-0.172
	c-0.153-0.127-0.31-0.259-0.446-0.408c-0.053-0.083-0.101-0.168-0.144-0.257c-0.056-0.157-0.099-0.314-0.131-0.476
	c-0.032-0.394-0.019-0.781,0.023-1.173c0.076-0.428,0.204-0.846,0.338-1.257c0.15-0.46,0.311-0.915,0.496-1.362
	c0.435-0.993,0.896-1.965,1.429-2.908c0.274-0.486,0.564-0.962,0.828-1.455c0.15-0.279,0.286-0.566,0.429-0.849
	c0.523,0.313,1.048,0.622,1.562,0.947c0.403,0.253,0.791,0.525,1.189,0.785c0.296,0.193,0.586,0.393,0.873,0.597
	c-0.03,0.088-0.061,0.176-0.086,0.263C9.675,14.693,9.62,14.893,9.567,15.093z M9.203,21.195c0.001-0.003,0.003-0.005,0.004-0.008
	c-0.003,0.006-0.005,0.012-0.008,0.018C9.2,21.202,9.202,21.198,9.203,21.195z M24.986,16c-0.001,0-0.002,0.001-0.003,0.001
	c-0.001,0-0.002,0.001-0.004,0.001C24.982,16.002,24.984,16.001,24.986,16z M31,25.254c-0.004-0.202-0.014-0.407-0.033-0.609
	c-0.025-0.266-0.08-0.527-0.123-0.789c-0.033-0.202-0.076-0.407-0.151-0.599c-0.186-0.466-0.411-0.901-0.668-1.328
	c-0.219-0.362-0.458-0.709-0.685-1.067c-0.439-0.691-0.844-1.4-1.3-2.08c-0.206-0.311-0.437-0.603-0.648-0.911
	c-0.161-0.235-0.304-0.484-0.464-0.721c-0.125-0.19-0.262-0.37-0.37-0.572c-0.006-0.011-0.019-0.015-0.025-0.025
	c-0.002-0.066,0.004-0.132-0.014-0.196c-0.093-0.341-0.433-0.607-0.789-0.607c-0.073,0-0.146,0.011-0.219,0.035
	c-0.181,0.061-0.355,0.14-0.53,0.217c-0.27,0.113-0.539,0.225-0.809,0.341c0.065-0.027,0.129-0.055,0.194-0.082
	c-0.41,0.172-0.806,0.364-1.21,0.546c-0.827,0.341-1.667,0.631-2.517,0.915c-0.279,0.093-0.481,0.309-0.57,0.569
	c-0.172,0.116-0.307,0.285-0.362,0.486c-0.067,0.243-0.012,0.443,0.086,0.666c0.275,0.616,0.554,1.23,0.821,1.849
	c0.172,0.426,0.337,0.854,0.526,1.275c0.168,0.374,0.347,0.742,0.513,1.118c0.341,0.774,0.721,1.524,1.171,2.244
	c0.233,0.374,0.476,0.742,0.748,1.089c0.258,0.329,0.558,0.605,0.862,0.887c0.333,0.311,0.685,0.623,1.091,0.836
	c0.233,0.121,0.476,0.221,0.729,0.294c0.253,0.074,0.533,0.098,0.795,0.121c0.19,0.014,0.378,0.025,0.568,0.014
	c0.129-0.008,0.26-0.027,0.386-0.049c0.149-0.029,0.294-0.102,0.431-0.161c0.27-0.116,0.523-0.253,0.76-0.429
	c0.309-0.229,0.613-0.49,0.868-0.779c0.224-0.252,0.375-0.547,0.566-0.818c0.044-0.056,0.087-0.112,0.129-0.171
	c0.129-0.18,0.163-0.417,0.184-0.631c0.014-0.149,0.016-0.298,0.035-0.448c-0.01,0.08-0.02,0.159-0.033,0.239
	C30.979,25.693,31.004,25.482,31,25.254z M29.195,25.614c-0.02,0.123-0.045,0.245-0.083,0.363c-0.1,0.184-0.24,0.349-0.369,0.514
	c0.028-0.036,0.056-0.071,0.083-0.108c-0.186,0.24-0.413,0.441-0.645,0.634c-0.187,0.132-0.386,0.244-0.592,0.344
	c-0.017,0.005-0.034,0.01-0.052,0.014c-0.21,0.011-0.419,0.001-0.629-0.018c-0.162-0.029-0.318-0.067-0.474-0.122
	c-0.159-0.081-0.309-0.175-0.454-0.279c-0.24-0.194-0.47-0.4-0.699-0.605c-0.224-0.199-0.417-0.416-0.603-0.648
	c-0.927-1.223-1.572-2.636-2.186-4.036c-0.168-0.419-0.315-0.845-0.472-1.269c-0.15-0.406-0.317-0.804-0.479-1.203
	c0.714-0.281,1.416-0.592,2.12-0.899c0.367-0.153,0.735-0.298,1.102-0.452c0.172-0.072,0.343-0.145,0.514-0.219
	c0.181,0.294,0.346,0.598,0.529,0.891c0.323,0.515,0.678,1.007,1.005,1.52c0.178,0.278,0.368,0.544,0.55,0.817
	c0.206,0.309,0.394,0.631,0.599,0.942c0.385,0.585,0.754,1.184,1.045,1.82c0.069,0.194,0.122,0.387,0.156,0.589
	c0.015,0.122,0.031,0.244,0.047,0.366c-0.003-0.019-0.006-0.037-0.008-0.056C29.246,24.877,29.237,25.253,29.195,25.614z
	 M18.403,21.247c0.208,0.437,0.443,0.958,0.143,1.416c-0.19,0.292-0.452,0.507-0.762,0.66c-0.151,0.074-0.29,0.168-0.443,0.235
	c-0.161,0.071-0.294,0.163-0.433,0.268c-0.217,0.161-0.441,0.309-0.66,0.468c-0.247,0.18-0.497,0.356-0.752,0.525
	c-0.366,0.245-0.891,0.074-1.103-0.29c-0.229-0.39-0.082-0.868,0.288-1.103c0.231-0.147,0.474-0.276,0.701-0.427
	c0.155-0.104,0.304-0.215,0.452-0.327c-0.1-0.025-0.201-0.045-0.301-0.071c-0.597-0.155-1.175-0.394-1.729-0.66
	c-0.272-0.131-0.552-0.251-0.809-0.411c-0.227-0.141-0.456-0.282-0.672-0.439c-0.505-0.368-0.979-0.785-1.457-1.185
	c-0.333-0.282-0.288-0.844,0-1.132c0.149-0.149,0.356-0.235,0.566-0.235c0.225,0,0.401,0.092,0.566,0.235
	c0.317,0.277,0.625,0.562,0.953,0.828c0.542,0.398,1.142,0.697,1.755,0.971c0.617,0.25,1.262,0.431,1.915,0.565
	c-0.082-0.187-0.166-0.373-0.241-0.564c-0.112-0.233-0.251-0.446-0.335-0.695c-0.147-0.429,0.161-0.909,0.58-1.024
	c0.072-0.02,0.146-0.03,0.219-0.03c0.147,0,0.292,0.039,0.42,0.113c0.198,0.116,0.309,0.288,0.382,0.497
	c0.129,0.354,0.248,0.706,0.392,1.055c0.031,0.073,0.063,0.147,0.093,0.221C18.217,20.893,18.317,21.067,18.403,21.247z"/>
</svg>