<?xml version="1.0" encoding="utf-8"?>
<svg width="800px" height="800px" viewBox="0 0 24 24" fill="none" xmlns="http://www.w3.org/2000/svg">
<path d="M4 7H20" stroke="#D7263D" stroke-width="1.5" stroke-linecap="round" stroke-linejoin="round"/>
<path d="M10 11V17" stroke="#D7263D" stroke-width="1.5" stroke-linecap="round" stroke-linejoin="round"/>
<path d="M14 11V17" stroke="#D7263D" stroke-width="1.5" stroke-linecap="round" stroke-linejoin="round"/>
<path d="M5 7L6 20C6 20.5304 6.21071 21.0391 6.58579 21.4142C6.96086 21.7893 7.46957 22 8 22H16C16.5304 22 17.0391 21.7893 17.4142 21.4142C17.7893 21.0391 18 20.5304 18 20L19 7" stroke="#D7263D" stroke-width="1.5" stroke-linecap="round" stroke-linejoin="round"/>
<path d="M9 7V4C9 3.73478 9.10536 3.48043 9.29289 3.29289C9.48043 3.10536 9.73478 3 10 3H14C14.2652 3 14.5196 3.10536 14.7071 3.29289C14.8946 3.48043 15 3.73478 15 4V7" stroke="#D7263D" stroke-width="1.5" stroke-linecap="round" stroke-linejoin="round"/>
</svg>
